HIERARCHY
ROOT Hips
{
  OFFSET 0 0.240689 0
  CHANNELS 6 Xposition Yposition Zposition Zrotation Xrotation Yrotation
  JOINT Bip01_Spine0
  {
    OFFSET 0 -24.7459 49.7988
    CHANNELS 6 Xposition Yposition Zposition Zrotation Xrotation Yrotation
    JOINT Bip01_Pelvis
    {
      OFFSET 0 0 0
      CHANNELS 6 Xposition Yposition Zposition Zrotation Xrotation Yrotation
      JOINT Bip01_Spine0_Tail
      {
        OFFSET -6.47486 -3.86022 0
        CHANNELS 6 Xposition Yposition Zposition Zrotation Xrotation Yrotation
        JOINT Bip01_Spine0_Tail1
        {
          OFFSET 10.3837 -0.00825882 0
          CHANNELS 6 Xposition Yposition Zposition Zrotation Xrotation Yrotation
          JOINT Bip01_Spine0_Tail2
          {
            OFFSET 10.3837 -0.00826263 0
            CHANNELS 6 Xposition Yposition Zposition Zrotation Xrotation Yrotation
            JOINT Bip01_Spine0_Tail3
            {
              OFFSET 10.3837 -0.00825882 0
              CHANNELS 6 Xposition Yposition Zposition Zrotation Xrotation Yrotation
              JOINT Bip01_Spine0_Tail4
              {
                OFFSET 10.3837 -0.00826263 0
                CHANNELS 6 Xposition Yposition Zposition Zrotation Xrotation Yrotation
                End Site
                {
                  OFFSET 0 0 0
                }
              }
            }
          }
        }
      }
      JOINT Bip01_R_Thigh
      {
        OFFSET 0 -1.52588e-005 -8.75617
        CHANNELS 6 Xposition Yposition Zposition Zrotation Xrotation Yrotation
        JOINT Bip01_R_Calf
        {
          OFFSET 19.7638 0 0
          CHANNELS 6 Xposition Yposition Zposition Zrotation Xrotation Yrotation
          JOINT Bip01_R_Foot
          {
            OFFSET 18.6534 0 0
            CHANNELS 6 Xposition Yposition Zposition Zrotation Xrotation Yrotation
            JOINT Bip01_R_Toe0
            {
              OFFSET 5.09145 13.9567 0
              CHANNELS 6 Xposition Yposition Zposition Zrotation Xrotation Yrotation
              JOINT Bip01_R_Toe01
              {
                OFFSET 4.28803 0 0
                CHANNELS 6 Xposition Yposition Zposition Zrotation Xrotation Yrotation
                JOINT Bip01_R_Toe02
                {
                  OFFSET 3.85801 0 0
                  CHANNELS 6 Xposition Yposition Zposition Zrotation Xrotation Yrotation
                  End Site
                  {
                    OFFSET 0 0 0
                  }
                }
              }
            }
          }
        }
      }
      JOINT Bip01_L_Thigh
      {
        OFFSET 0 1.52588e-005 8.75617
        CHANNELS 6 Xposition Yposition Zposition Zrotation Xrotation Yrotation
        JOINT Bip01_L_Calf
        {
          OFFSET 19.7638 0 0
          CHANNELS 6 Xposition Yposition Zposition Zrotation Xrotation Yrotation
          JOINT Bip01_L_Foot
          {
            OFFSET 18.6534 0 0
            CHANNELS 6 Xposition Yposition Zposition Zrotation Xrotation Yrotation
            JOINT Bip01_L_Toe0
            {
              OFFSET 5.09144 13.9567 0
              CHANNELS 6 Xposition Yposition Zposition Zrotation Xrotation Yrotation
              JOINT Bip01_L_Toe01
              {
                OFFSET 4.28802 0 0
                CHANNELS 6 Xposition Yposition Zposition Zrotation Xrotation Yrotation
                JOINT Bip01_L_Toe02
                {
                  OFFSET 3.85801 0 0
                  CHANNELS 6 Xposition Yposition Zposition Zrotation Xrotation Yrotation
                  End Site
                  {
                    OFFSET 0 0 0
                  }
                }
              }
            }
          }
        }
      }
      JOINT Bip01_Spine
      {
        OFFSET 9.14835 -0.00640869 -1.1e-005
        CHANNELS 6 Xposition Yposition Zposition Zrotation Xrotation Yrotation
        JOINT Bip01_Spine1
        {
          OFFSET 8.04366 -0.00638199 0
          CHANNELS 6 Xposition Yposition Zposition Zrotation Xrotation Yrotation
          JOINT Bip01_Spine2
          {
            OFFSET 8.04367 -0.00639343 0
            CHANNELS 6 Xposition Yposition Zposition Zrotation Xrotation Yrotation
            JOINT Bip01_Spine3
            {
              OFFSET 8.04304 -0.00831222 0
              CHANNELS 6 Xposition Yposition Zposition Zrotation Xrotation Yrotation
              JOINT Bip01_Neck
              {
                OFFSET 10.6685 1.06813 0
                CHANNELS 6 Xposition Yposition Zposition Zrotation Xrotation Yrotation
                JOINT Bip01_R_Clavicle
                {
                  OFFSET -3.21661 -4.89635 -9.04802
                  CHANNELS 6 Xposition Yposition Zposition Zrotation Xrotation Yrotation
                  JOINT Bip01_R_UpperArm
                  {
                    OFFSET 19.0492 0 0
                    CHANNELS 6 Xposition Yposition Zposition Zrotation Xrotation Yrotation
                    JOINT Bip01_R_Forearm
                    {
                      OFFSET 10.3706 0 0
                      CHANNELS 6 Xposition Yposition Zposition Zrotation Xrotation Yrotation
                      JOINT Bip01_R_Hand
                      {
                        OFFSET 22.8632 0 0
                        CHANNELS 6 Xposition Yposition Zposition Zrotation Xrotation Yrotation
                        JOINT Bip01_R_Finger0
                        {
                          OFFSET 6.48259 0.103651 0.504496
                          CHANNELS 6 Xposition Yposition Zposition Zrotation Xrotation Yrotation
                          JOINT Bip01_R_Finger01
                          {
                            OFFSET 3.66847 0 0
                            CHANNELS 6 Xposition Yposition Zposition Zrotation Xrotation Yrotation
                            End Site
                            {
                              OFFSET 0 0 0
                            }
                          }
                        }
                      }
                    }
                  }
                }
                JOINT Bip01_L_Clavicle
                {
                  OFFSET -3.21661 -4.89641 9.04797
                  CHANNELS 6 Xposition Yposition Zposition Zrotation Xrotation Yrotation
                  JOINT Bip01_L_UpperArm
                  {
                    OFFSET 19.0492 0 0
                    CHANNELS 6 Xposition Yposition Zposition Zrotation Xrotation Yrotation
                    JOINT Bip01_L_Forearm
                    {
                      OFFSET 10.3706 0 0
                      CHANNELS 6 Xposition Yposition Zposition Zrotation Xrotation Yrotation
                      JOINT Bip01_L_Hand
                      {
                        OFFSET 22.8631 0 0
                        CHANNELS 6 Xposition Yposition Zposition Zrotation Xrotation Yrotation
                        JOINT Bip01_L_Finger0
                        {
                          OFFSET 6.48257 0.103655 -0.504492
                          CHANNELS 6 Xposition Yposition Zposition Zrotation Xrotation Yrotation
                          JOINT Bip01_L_Finger01
                          {
                            OFFSET 3.66844 0 0
                            CHANNELS 6 Xposition Yposition Zposition Zrotation Xrotation Yrotation
                            End Site
                            {
                              OFFSET 0 0 0
                            }
                          }
                        }
                      }
                    }
                  }
                }
                JOINT Bip01_Neck1
                {
                  OFFSET 7.52459 -0.00656509 0
                  CHANNELS 6 Xposition Yposition Zposition Zrotation Xrotation Yrotation
                  JOINT Bip01_Neck2
                  {
                    OFFSET 8.4783 -0.00588226 0
                    CHANNELS 6 Xposition Yposition Zposition Zrotation Xrotation Yrotation
                    JOINT Bip01_Head
                    {
                      OFFSET 8.41606 0 0
                      CHANNELS 6 Xposition Yposition Zposition Zrotation Xrotation Yrotation
                      JOINT EyesBlue
                      {
                        OFFSET 0 0 0
                        CHANNELS 6 Xposition Yposition Zposition Zrotation Xrotation Yrotation
                        JOINT EyesBlue_2
                        {
                          OFFSET 0 -0.500007 0
                          CHANNELS 6 Xposition Yposition Zposition Zrotation Xrotation Yrotation
                          End Site
                          {
                            OFFSET 0 0 0
                          }
                        }
                      }
                      JOINT Bip01_Head2_Eyeleds
                      {
                        OFFSET 6.52751 7.61746 2.2e-005
                        CHANNELS 6 Xposition Yposition Zposition Zrotation Xrotation Yrotation
                        End Site
                        {
                          OFFSET 0 0 0
                        }
                      }
                      JOINT Bip01_Head_Muzzle
                      {
                        OFFSET 2.88628 13.9448 3.88994
                        CHANNELS 6 Xposition Yposition Zposition Zrotation Xrotation Yrotation
                        End Site
                        {
                          OFFSET 0 0 0
                        }
                      }
                      JOINT Bip01_Head1_Jaw
                      {
                        OFFSET 0.271065 1.32405 0
                        CHANNELS 6 Xposition Yposition Zposition Zrotation Xrotation Yrotation
                        JOINT _Bip01_Head11_TungeControler
                        {
                          OFFSET 4.61616 5.82872 0
                          CHANNELS 6 Xposition Yposition Zposition Zrotation Xrotation Yrotation
                          JOINT _Bip01_Ponytail3_tunge
                          {
                            OFFSET 5.17785 2.98805 0
                            CHANNELS 6 Xposition Yposition Zposition Zrotation Xrotation Yrotation
                            JOINT Bip01_Ponytail31
                            {
                              OFFSET 5.57569 0 0
                              CHANNELS 6 Xposition Yposition Zposition Zrotation Xrotation Yrotation
                              JOINT Bip01_Ponytail32
                              {
                                OFFSET 2.93165 0 0
                                CHANNELS 6 Xposition Yposition Zposition Zrotation Xrotation Yrotation
                                JOINT Bip01_Ponytail3Nub
                                {
                                  OFFSET 3.30155 0 0
                                  CHANNELS 6 Xposition Yposition Zposition Zrotation Xrotation Yrotation
                                  End Site
                                  {
                                    OFFSET 0 0 0
                                  }
                                }
                              }
                            }
                          }
                        }
                        JOINT Bip01_Head_JawNub
                        {
                          OFFSET 15.5776 -0.000389099 0
                          CHANNELS 6 Xposition Yposition Zposition Zrotation Xrotation Yrotation
                          End Site
                          {
                            OFFSET 0 0 0
                          }
                        }
                      }
                      JOINT Bip01_Ponytail2
                      {
                        OFFSET 9.40334 1.03973 -6.51764
                        CHANNELS 6 Xposition Yposition Zposition Zrotation Xrotation Yrotation
                        JOINT Bip01_Ponytail21
                        {
                          OFFSET 2.77018 -0.00640106 1.33514e-005
                          CHANNELS 6 Xposition Yposition Zposition Zrotation Xrotation Yrotation
                          End Site
                          {
                            OFFSET 0 0 0
                          }
                        }
                      }
                      JOINT Bip01_Ponytail1
                      {
                        OFFSET 9.40368 1.03969 6.51768
                        CHANNELS 6 Xposition Yposition Zposition Zrotation Xrotation Yrotation
                        JOINT Bip01_Ponytail11
                        {
                          OFFSET 2.77018 -0.00640487 0
                          CHANNELS 6 Xposition Yposition Zposition Zrotation Xrotation Yrotation
                          End Site
                          {
                            OFFSET 0 0 0
                          }
                        }
                      }
                    }
                  }
                }
              }
            }
          }
        }
      }
    }
  }
}
MOTION
Frames:	4
Frame Time:	0.0333333
0 0 0 -0 -90 -0 0.000799 -24.7447 51.0025 89.9996 0.000545403 83.0374 0 0 0 -89.9999 -0.000203318 -101.471 -6.34784 -3.85845 1.29202 164.107 -0.892488 -16.0137 10.3831 -0.008125 -3.8e-005 -1.48087 0.713158 12.317 10.3816 -0.007976 0.000269999 -11.9864 -1.12534 11.7492 10.3843 -0.008117 0.000764999 7.01411 -4.50699 14.2254 10.3827 -0.007957 0.001878 -3.73012 -12.4702 6.63889 1.1e-005 -1.5e-005 -8.75617 -87.7829 -10.2956 -174.885 19.7638 0 -5.77316e-015 -62.6874 0.000202 0.000834 18.6534 3e-006 3.10862e-015 -42.5587 2.69015 7.15049 5.09143 13.9567 8.14957e-007 108.018 2.57902 -4.28571 4.288 7.10543e-015 -1.77636e-015 51.502 0.000251632 8.67956e-005 3.85799 3.55271e-015 3.55271e-015 -44.9998 0.000937767 0.00226857 -1.5e-005 1.5e-005 8.75617 -77.8741 -11.7161 177.527 19.7638 -1e-006 -1e-006 -78.0399 -0.00027819 -0.00258387 18.6534 -2.13163e-014 8.88178e-016 -38.4392 -0.743052 -6.25202 5.09144 13.9567 1.11177e-007 81.6088 -3.37563 3.69066 4.288 -3e-006 2.84217e-014 -18.5 -1.60136e-007 -1.70509e-007 3.85799 3e-006 -1.77636e-014 -2.5 -1.73274e-005 -7.69982e-007 8.96323 -0.006088 -1.82327 -11.725 -4.22676 21.9939 8.04383 -0.006286 0.0001 2.47594 -0.350496 -5.56389 8.04374 -0.00629 0.0001 0.982881 0.195289 -2.06722 8.04399 -0.008228 0.000128 2.65546 -0.717815 -3.02481 10.6688 1.06807 4.48986e-005 -10.4616 -0.408671 4.44764 -4.40171 -3.86759 -9.048 177.857 -85.4156 138.003 19.0492 1e-006 -7e-006 92.491 19.5781 -103.234 10.3706 -1.42109e-014 -1e-006 -86.8852 2.78799e-005 0.00089109 22.8631 -3e-006 1.86517e-013 19.9512 12.1153 3.5498 6.48256 0.103653 0.504496 -28.8497 -12.0837 -9.77547 3.66843 -4.68959e-013 3e-006 40.1083 0.000915477 0.00041476 -4.40171 -3.86765 9.04799 177.851 85.4168 -132.331 19.0492 -1.77636e-015 -1.42109e-014 77.0218 -38.2165 76.2966 10.3706 -1.42109e-014 7.10543e-015 -74.7215 0.000369351 0.00272239 22.8631 -3e-006 2.80664e-013 45.117 -10.1035 8.70911 6.48256 0.103653 -0.504495 -8.97271 14.6443 5.14072 3.66843 3e-006 9.99999e-007 25.6094 0.00162617 0.00103049 7.52528 -0.006645 2.49998e-005 -7.89815 0.00140021 0.00160829 8.47874 -0.005424 1.69998e-005 34.1794 0.00093776 0.000484932 8.41605 7e-006 -2.23421e-012 -88.6726 1.19141 1.61794 -7e-006 3e-006 -3e-006 -23.1098 1.37701e-015 90 -2.13627e-006 -0.500008 -2.80853e-006 5.72637e-008 90 90 0 0 0 -113.549 -7.01671e-015 -180 2.8863 13.9448 3.88993 -23.4392 1.39554e-015 90 0 0 0 -73.906 -7.01671e-015 -180 0 0 0 -109.17 -3.07593e-006 -2.01614e-005 0 0 0 133.264 -2.07853e-005 -7.49999 0 0 0 -13.0146 -7.97517 -4.54404 0 0 0 -25.1519 -11.7761 -12.6897 0 0 0 -26.1943 3.40693e-007 -4.37242e-006 15.5776 -0.000404 -7e-006 -3.18055e-015 -7.95139e-016 7.95139e-016 9.4036 1.03979 -6.51604 -5.81608 -20.0433 20.179 2.77012 -0.006019 0.002113 2.27052 -18.4985 -0.511617 9.40406 1.0397 6.51625 -5.815 20.0457 -20.1768 2.77011 -0.006046 -0.002105 2.27109 18.5016 0.51359 
-2.00001e-007 0 -9.47556 -0 -90 -0 0.000799 -24.7447 53.9664 90.0001 0.000281183 88.6257 0 0 0 -89.9999 -0.00020333 -101.472 -6.34922 -3.85845 1.29214 172.888 -4.10451 -16.9826 10.3831 -0.008125 -3.8e-005 -2.03935 0.583094 10.8895 10.3816 -0.007976 0.000269999 -11.7307 -1.15528 10.317 10.3843 -0.008117 0.000764999 3.1613 -5.23666 12.4703 10.3827 -0.007957 0.001878 -4.49944 -12.569 5.03654 1.1e-005 -1.5e-005 -8.75617 -84.4033 -10.1289 -173.876 19.7638 0 9.32587e-015 -67.013 0.000167683 0.000834489 18.6534 3e-006 1.77636e-015 -43.7923 1.90663 7.35248 5.09143 13.9567 3.77024e-007 102.169 3.1116 -3.78879 4.288 1.42109e-014 -5.32907e-015 45.1331 0.000236424 0.00011313 3.85799 3.55271e-015 3.55271e-015 -44.9918 0.000940529 0.00227156 -1.5e-005 1.5e-005 8.75617 -80.0988 -11.6748 177.072 19.7638 -1e-006 -1e-006 -88.6514 -4.36171e-005 -0.00258515 18.6534 0 3.55271e-015 -32.0793 -0.483929 -6.3312 5.09144 13.9567 1.10659e-007 81.6088 -3.37563 3.69066 4.288 -3e-006 3.55271e-014 -18.5 -1.3564e-007 -2.19858e-007 3.85799 3e-006 -2.30926e-014 -2.5 -1.73472e-005 -7.77484e-007 8.96366 -0.006088 -1.82299 -9.34237 -3.37185 22.0334 8.04383 -0.006286 0.0001 -0.874172 -0.02208 -5.68334 8.04374 -0.00629 0.0001 1.03262 0.191468 -2.18056 8.04399 -0.008228 0.000128 4.44013 -0.820851 -3.11715 10.6688 1.06807 4.47804e-005 -10.4616 -0.408678 4.44764 -4.40171 -3.86759 -9.048 178.936 -86.9934 130.971 19.0492 1e-006 -7e-006 91.4439 16.6623 -100.824 10.3706 3.55272e-015 -1e-006 -86.6418 3.09332e-005 0.000891077 22.8631 -3e-006 2.65565e-013 17.3303 9.86346 3.95255 6.48256 0.103653 0.504496 -45.499 -8.71827 -12.7261 3.66843 -6.75017e-014 3e-006 40.1083 0.000908303 0.000420216 -4.40171 -3.86765 9.04799 177.855 85.4173 -130.207 19.0492 7.10543e-015 0 79.2299 -43.4308 80.1789 10.3706 0 3.55271e-015 -67.4808 0.00056238 0.0027202 22.8631 -3e-006 8.27782e-013 31.1259 -9.40434 7.31166 6.48256 0.103653 -0.504495 -16.8193 13.7844 7.07794 3.66843 3e-006 9.99999e-007 25.7122 0.00163117 0.00102636 7.52528 -0.006645 2.49997e-005 -7.677 0.00140663 0.00160296 8.47874 -0.005424 1.69998e-005 29.5092 0.000892411 0.000557965 8.41605 7e-006 -1.81943e-012 -86.4505 0.694075 1.76354 -7e-006 3e-006 -3e-006 -23.1098 1.37701e-015 90 -2.13503e-006 -0.500008 -2.80938e-006 -65.8956 90 155.896 0 0 0 -113.549 -1.52588e-005 -180 2.8863 13.9448 3.88993 -23.4392 1.39554e-015 90 0 0 0 -75.0501 -3.24611e-014 -180 0 0 0 -110.283 -2.13459e-006 -2.0989e-005 0 0 0 133.312 -8.24379e-006 -6.74924 0 0 0 -11.471 -7.18112 -4.08163 0 0 0 -24.3854 -10.909 -11.6762 0 0 0 -26.1943 -1.72846e-007 -4.2817e-006 15.5776 -0.000404 -6.99999e-006 -6.36111e-015 -5.96354e-016 -0 9.4036 1.03979 -6.51604 -5.53941 -19.6869 19.6256 2.77012 -0.006019 0.002113 2.27056 -18.496 -0.511663 9.40406 1.0397 6.51625 -5.53985 19.689 -19.6237 2.77011 -0.006046 -0.002105 2.27127 18.4987 0.512662 
-4.00005e-007 0 -18.9513 -0 -90 -0 0.000799 -24.7447 54.0571 90.0002 -0.000406865 94.2165 0 0 0 -90 -0.000209389 -101.471 -6.35063 -3.85845 1.29188 -178.411 -7.38414 -17.4417 10.3831 -0.008125 -3.8e-005 -2.58634 0.467464 9.48267 10.3816 -0.007976 0.000270003 -11.4826 -1.19339 8.90706 10.3843 -0.008117 0.000764999 -0.672368 -5.84465 10.6965 10.3827 -0.007957 0.001878 -5.27012 -12.6478 3.45463 1.1e-005 -1.5e-005 -8.75617 -80.987 -9.89605 -172.875 19.7638 3.55271e-015 5.77316e-015 -71.2423 0.000135445 0.000834477 18.6534 3e-006 2.66454e-015 -45.086 1.09993 7.47682 5.09143 13.9567 2.22547e-007 91.6075 3.90705 -2.7542 4.288 1.42109e-014 -3.55271e-015 33.6929 0.000207815 0.000157318 3.85799 -2.13163e-014 3.55271e-015 -45.006 0.000942058 0.00227295 -1.5e-005 1.5e-005 8.75617 -81.1217 -11.6803 176.854 19.7638 -1e-006 -1e-006 -98.06 0.000181267 -0.00258559 18.6534 1.77636e-014 8.88178e-016 -25.9168 -0.206767 -6.40321 5.09144 13.9567 1.13143e-007 81.6088 -3.37563 3.69066 4.288 -3e-006 4.79616e-014 -18.5 -2.04865e-007 -3.03356e-007 3.85799 3e-006 -3.73035e-014 -2.5 -1.75247e-005 -7.8535e-007 8.96415 -0.006088 -1.82207 -6.9984 -2.5289 22.0331 8.04383 -0.006286 0.0001 -4.22664 0.319972 -5.78999 8.04374 -0.00629 0.0001 1.0731 0.187835 -2.29318 8.04399 -0.008228 0.000128 6.20935 -0.929485 -3.20739 10.6688 1.06807 4.21929e-005 -10.4616 -0.408816 4.44762 -4.40171 -3.86759 -9.048 -179.382 -88.5387 125.257 19.0492 1e-006 -7e-006 91.209 13.3531 -98.9604 10.3706 0 -1e-006 -85.6185 3.61285e-005 0.000890922 22.8631 -3e-006 1.26121e-013 13.7821 7.73538 4.18981 6.48256 0.103653 0.504496 -61.8726 -4.69613 -14.5674 3.66843 2.84218e-014 3e-006 40.1083 0.000907044 0.000422261 -4.40171 -3.86765 9.04799 177.855 85.4174 -128.2 19.0492 -3.55272e-015 1.42109e-014 81.8494 -45.5891 84.5405 10.3706 -7.10543e-015 3.55271e-015 -63.1526 0.000668238 0.00271786 22.8631 -3e-006 4.83169e-013 18.5223 -8.43424 6.09152 6.48256 0.103653 -0.504495 -24.3609 12.7984 8.77645 3.66843 3e-006 1e-006 25.5061 0.00163585 0.00102822 7.52528 -0.006645 2.49995e-005 -7.29709 0.00141768 0.00159374 8.47874 -0.005424 1.69997e-005 24.839 0.000840491 0.000627224 8.41605 7e-006 -1.29496e-012 -84.4014 0.20282 1.88477 -7e-006 3e-006 -3e-006 -23.1098 1.37701e-015 90 -2.13388e-006 -0.500008 -2.81107e-006 -67.1234 90 157.123 0 0 0 -113.549 -1.52588e-005 -180 2.8863 13.9448 3.88993 -23.4392 1.39554e-015 90 0 0 0 -76.1942 -1.52588e-005 -180 0 0 0 -111.396 -1.26777e-006 -2.15188e-005 0 0 0 133.359 -6.56164e-007 -5.9985 0 0 0 -9.94043 -6.38574 -3.62162 0 0 0 -23.6509 -10.0323 -10.6713 0 0 0 -26.1943 -4.95552e-007 -4.05407e-006 15.5776 -0.000404 -6.99999e-006 3.18055e-015 7.95139e-016 -0 9.4036 1.03979 -6.51604 -5.29334 -19.3729 19.1372 2.77012 -0.006019 0.002113 2.27061 -18.5013 -0.511387 9.40406 1.0397 6.51625 -5.29379 19.3754 -19.1352 2.77011 -0.006046 -0.002105 2.27129 18.5041 0.512705 
-6.00005e-007 0 -28.4269 -0 -90 -0 0.000799 -24.7447 53.4769 90.0003 -0.000276596 98.2882 0 0 0 -90 -0.000200285 -101.471 -6.35192 -3.85845 1.29125 -170.682 -10.2758 -17.7858 10.3831 -0.008125 -3.8e-005 -2.38365 0.519295 7.93235 10.3816 -0.007976 0.000270001 -10.4014 -1.05684 7.37891 10.3843 -0.008117 0.000765002 -3.1377 -6.09501 8.90276 10.3827 -0.007957 0.001878 -4.97847 -12.6062 1.97034 1.1e-005 -1.5e-005 -8.75617 -78.6235 -9.7174 -172.141 19.7638 5.32907e-015 4.44089e-015 -75.3482 0.000104871 0.000834314 18.6534 3e-006 1.33227e-015 -45.3589 0.494845 7.53027 5.09143 13.9567 1.61736e-007 82.5488 4.47537 -1.79236 4.288 -1.42109e-014 1.77636e-015 23.8773 0.000176798 0.000190592 3.85799 0 3.55271e-015 -45.0007 0.000965999 0.00227339 -1.5e-005 1.5e-005 8.75617 -82.5764 -11.6537 176.661 19.7638 -1e-006 -1e-006 -105.71 0.000357527 -0.00258525 18.6534 -7.10543e-015 -8.88178e-016 -18.8222 -0.184485 -6.39879 5.09144 13.9567 1.12636e-007 81.6088 -3.37563 3.69066 4.288 -3e-006 5.86198e-014 -18.5 -4.59188e-007 -3.49937e-007 3.85799 3e-006 -3.19744e-014 -2.5 -1.79079e-005 -7.80329e-007 8.96469 -0.006088 -1.82062 -4.73154 -1.71205 22.01 8.04383 -0.006286 0.0001 -6.64954 0.577952 -5.879 8.04374 -0.00629 0.0001 1.3251 0.175493 -2.39182 8.04399 -0.008228 0.000128001 7.84473 -1.03524 -3.28293 10.6688 1.06807 4.51988e-005 -10.4616 -0.408659 4.44765 -4.40171 -3.86759 -9.048 -56.3128 -89.8882 -119.775 19.0492 1e-006 -7e-006 91.1847 11.1066 -97.1734 10.3706 -3.90799e-014 -1e-006 -85.664 3.50529e-005 0.00089059 22.8631 -3e-006 9.68114e-014 11.5274 5.51368 4.38674 6.48256 0.103653 0.504496 -77.5088 -0.512014 -15.2826 3.66843 -2.54908e-013 3e-006 40.1083 0.000913137 0.000419015 -4.40171 -3.86765 9.04799 177.855 85.4179 -126.188 19.0492 7.10543e-015 -1.42109e-014 84.9777 -51.2444 89.5335 10.3706 7.10543e-015 1.77636e-015 -55.8601 0.000866537 0.00270617 22.8631 -3e-006 2.73559e-013 4.72696 -7.17629 5.16525 6.48256 0.103653 -0.504495 -32.2018 11.435 10.4391 3.66843 3e-006 1e-006 25.7104 0.00166775 0.00100817 7.52528 -0.006645 2.49993e-005 -6.87596 0.00142969 0.00158347 8.47874 -0.005424 1.69996e-005 20.1 0.000784568 0.000693139 8.41605 7e-006 -9.85434e-013 -83.2849 -0.273793 1.9034 -7e-006 3e-006 -3e-006 -23.1098 1.37701e-015 90 -2.13292e-006 -0.500008 -2.81362e-006 -69.0053 90 159.005 0 0 0 -113.549 -1.52588e-005 -180 2.8863 13.9448 3.88993 -23.4392 1.39554e-015 90 0 0 0 -77.3384 -1.52588e-005 -180 0 0 0 -112.509 -4.67872e-007 -2.18793e-005 0 0 0 133.407 -1.43672e-006 -5.24775 0 0 0 -8.42269 -5.58914 -3.16371 0 0 0 -22.9482 -9.14695 -9.67452 0 0 0 -26.1943 -7.34727e-007 -3.90365e-006 15.5776 -0.000404 -6.99998e-006 0 7.95139e-016 -0 9.4036 1.03979 -6.51604 -5.38442 -19.4885 19.3168 2.77012 -0.006019 0.002113 2.27069 -18.496 -0.510924 9.40406 1.0397 6.51625 -5.38454 19.4907 -19.3147 2.77011 -0.006046 -0.002105 2.2713 18.4986 0.51273 
